solid OpenSCAD_Model
  facet normal 0 0 1
    outer loop
      vertex -0.95 -3.175 1.28
      vertex -1.925 -3.175 1.28
      vertex -0.95 -5.075 1.28
    endloop
  endfacet
  facet normal 0 0 1
    outer loop
      vertex 2.75 5.5 1.28
      vertex 1.925 3.175 1.28
      vertex 2.75 -5.5 1.28
    endloop
  endfacet
  facet normal 0 0 1
    outer loop
      vertex 2.75 5.5 1.28
      vertex 0.95 5.075 1.28
      vertex 1.925 3.175 1.28
    endloop
  endfacet
  facet normal 0 0 1
    outer loop
      vertex 2.75 5.5 1.28
      vertex -0.95 5.075 1.28
      vertex 0.95 5.075 1.28
    endloop
  endfacet
  facet normal 0 0 1
    outer loop
      vertex -0.95 5.075 1.28
      vertex -1.925 3.175 1.28
      vertex -0.95 3.175 1.28
    endloop
  endfacet
  facet normal 0 0 1
    outer loop
      vertex -1.925 3.175 1.28
      vertex -2.75 5.5 1.28
      vertex -1.925 -3.175 1.28
    endloop
  endfacet
  facet normal 0 0 1
    outer loop
      vertex -0.95 5.075 1.28
      vertex -2.75 5.5 1.28
      vertex -1.925 3.175 1.28
    endloop
  endfacet
  facet normal -0 0 1
    outer loop
      vertex -2.75 5.5 1.28
      vertex -0.95 5.075 1.28
      vertex 2.75 5.5 1.28
    endloop
  endfacet
  facet normal -0 0 1
    outer loop
      vertex 1.925 -3.175 1.28
      vertex 2.75 -5.5 1.28
      vertex 1.925 3.175 1.28
    endloop
  endfacet
  facet normal 0 0 1
    outer loop
      vertex 0.95 -5.075 1.28
      vertex 1.925 -3.175 1.28
      vertex 0.95 -3.175 1.28
    endloop
  endfacet
  facet normal 0 0 1
    outer loop
      vertex 1.925 -3.175 1.28
      vertex 0.95 -5.075 1.28
      vertex 2.75 -5.5 1.28
    endloop
  endfacet
  facet normal -0 0 1
    outer loop
      vertex -0.95 -5.075 1.28
      vertex 2.75 -5.5 1.28
      vertex 0.95 -5.075 1.28
    endloop
  endfacet
  facet normal 0 0 1
    outer loop
      vertex -0.95 -5.075 1.28
      vertex -2.75 -5.5 1.28
      vertex 2.75 -5.5 1.28
    endloop
  endfacet
  facet normal 0 0 1
    outer loop
      vertex -1.925 -3.175 1.28
      vertex -2.75 -5.5 1.28
      vertex -0.95 -5.075 1.28
    endloop
  endfacet
  facet normal 0 0 1
    outer loop
      vertex -2.75 -5.5 1.28
      vertex -1.925 -3.175 1.28
      vertex -2.75 5.5 1.28
    endloop
  endfacet
  facet normal 0 0 1
    outer loop
      vertex 1.925 3.175 1.28
      vertex 0.95 5.075 1.28
      vertex 0.95 3.175 1.28
    endloop
  endfacet
  facet normal 1 -0 0
    outer loop
      vertex 2.75 -5.5 1.28
      vertex 2.75 5.5 -1.28
      vertex 2.75 5.5 1.28
    endloop
  endfacet
  facet normal 1 0 0
    outer loop
      vertex 2.75 5.5 -1.28
      vertex 2.75 -5.5 1.28
      vertex 2.75 -5.5 -1.28
    endloop
  endfacet
  facet normal 0 0 -1
    outer loop
      vertex 2.75 -5.5 -1.28
      vertex 1.925 -3.175 -1.28
      vertex 2.75 5.5 -1.28
    endloop
  endfacet
  facet normal 0 0 -1
    outer loop
      vertex 2.75 -5.5 -1.28
      vertex -1.925 -3.175 -1.28
      vertex 1.925 -3.175 -1.28
    endloop
  endfacet
  facet normal -0 0 -1
    outer loop
      vertex -1.925 -3.175 -1.28
      vertex -2.75 -5.5 -1.28
      vertex -1.925 3.175 -1.28
    endloop
  endfacet
  facet normal 0 0 -1
    outer loop
      vertex -2.75 -5.5 -1.28
      vertex -1.925 -3.175 -1.28
      vertex 2.75 -5.5 -1.28
    endloop
  endfacet
  facet normal 0 0 -1
    outer loop
      vertex 1.925 3.175 -1.28
      vertex 2.75 5.5 -1.28
      vertex 1.925 -3.175 -1.28
    endloop
  endfacet
  facet normal 0 0 -1
    outer loop
      vertex -1.925 3.175 -1.28
      vertex 2.75 5.5 -1.28
      vertex 1.925 3.175 -1.28
    endloop
  endfacet
  facet normal 0 0 -1
    outer loop
      vertex -1.925 3.175 -1.28
      vertex -2.75 5.5 -1.28
      vertex 2.75 5.5 -1.28
    endloop
  endfacet
  facet normal 0 0 -1
    outer loop
      vertex -2.75 5.5 -1.28
      vertex -1.925 3.175 -1.28
      vertex -2.75 -5.5 -1.28
    endloop
  endfacet
  facet normal 0 1 -0
    outer loop
      vertex 2.75 5.5 -1.28
      vertex -2.75 5.5 1.28
      vertex 2.75 5.5 1.28
    endloop
  endfacet
  facet normal 0 1 0
    outer loop
      vertex -2.75 5.5 1.28
      vertex 2.75 5.5 -1.28
      vertex -2.75 5.5 -1.28
    endloop
  endfacet
  facet normal -1 0 0
    outer loop
      vertex -2.75 -5.5 -1.28
      vertex -2.75 5.5 1.28
      vertex -2.75 5.5 -1.28
    endloop
  endfacet
  facet normal -1 -0 0
    outer loop
      vertex -2.75 5.5 1.28
      vertex -2.75 -5.5 -1.28
      vertex -2.75 -5.5 1.28
    endloop
  endfacet
  facet normal 0 -1 0
    outer loop
      vertex -2.75 -5.5 -1.28
      vertex 2.75 -5.5 1.28
      vertex -2.75 -5.5 1.28
    endloop
  endfacet
  facet normal 0 -1 -0
    outer loop
      vertex 2.75 -5.5 1.28
      vertex -2.75 -5.5 -1.28
      vertex 2.75 -5.5 -1.28
    endloop
  endfacet
  facet normal -1 0 0
    outer loop
      vertex 1.925 -3.175 -1.28
      vertex 1.925 3.175 1.28
      vertex 1.925 3.175 -1.28
    endloop
  endfacet
  facet normal -1 -0 0
    outer loop
      vertex 1.925 3.175 1.28
      vertex 1.925 -3.175 -1.28
      vertex 1.925 -3.175 1.28
    endloop
  endfacet
  facet normal 0 -1 0
    outer loop
      vertex -1.925 3.175 1.28
      vertex -0.95 3.175 0.28
      vertex -0.95 3.175 1.28
    endloop
  endfacet
  facet normal 0 -1 -0
    outer loop
      vertex -0.95 3.175 0.28
      vertex -1.925 3.175 -1.28
      vertex 0.95 3.175 0.28
    endloop
  endfacet
  facet normal 0 -1 0
    outer loop
      vertex -1.925 3.175 -1.28
      vertex -0.95 3.175 0.28
      vertex -1.925 3.175 1.28
    endloop
  endfacet
  facet normal 0 -1 0
    outer loop
      vertex 0.95 3.175 0.28
      vertex 1.925 3.175 1.28
      vertex 0.95 3.175 1.28
    endloop
  endfacet
  facet normal 0 -1 0
    outer loop
      vertex 0.95 3.175 0.28
      vertex 1.925 3.175 -1.28
      vertex 1.925 3.175 1.28
    endloop
  endfacet
  facet normal 0 -1 0
    outer loop
      vertex 1.925 3.175 -1.28
      vertex 0.95 3.175 0.28
      vertex -1.925 3.175 -1.28
    endloop
  endfacet
  facet normal 1 -0 0
    outer loop
      vertex -1.925 -3.175 1.28
      vertex -1.925 3.175 -1.28
      vertex -1.925 3.175 1.28
    endloop
  endfacet
  facet normal 1 0 0
    outer loop
      vertex -1.925 3.175 -1.28
      vertex -1.925 -3.175 1.28
      vertex -1.925 -3.175 -1.28
    endloop
  endfacet
  facet normal 0 1 0
    outer loop
      vertex 1.925 -3.175 1.28
      vertex 0.95 -3.175 0.28
      vertex 0.95 -3.175 1.28
    endloop
  endfacet
  facet normal 0 1 0
    outer loop
      vertex 0.95 -3.175 0.28
      vertex 1.925 -3.175 -1.28
      vertex -0.95 -3.175 0.28
    endloop
  endfacet
  facet normal 0 1 -0
    outer loop
      vertex 1.925 -3.175 -1.28
      vertex 0.95 -3.175 0.28
      vertex 1.925 -3.175 1.28
    endloop
  endfacet
  facet normal 0 1 -0
    outer loop
      vertex -0.95 -3.175 0.28
      vertex -1.925 -3.175 1.28
      vertex -0.95 -3.175 1.28
    endloop
  endfacet
  facet normal 0 1 0
    outer loop
      vertex -0.95 -3.175 0.28
      vertex -1.925 -3.175 -1.28
      vertex -1.925 -3.175 1.28
    endloop
  endfacet
  facet normal 0 1 0
    outer loop
      vertex -1.925 -3.175 -1.28
      vertex -0.95 -3.175 0.28
      vertex 1.925 -3.175 -1.28
    endloop
  endfacet
  facet normal -1 0 0
    outer loop
      vertex 0.95 -5.075 0.28
      vertex 0.95 -3.175 1.28
      vertex 0.95 -3.175 0.28
    endloop
  endfacet
  facet normal -1 -0 0
    outer loop
      vertex 0.95 -3.175 1.28
      vertex 0.95 -5.075 0.28
      vertex 0.95 -5.075 1.28
    endloop
  endfacet
  facet normal -0 0 1
    outer loop
      vertex -0.95 -3.175 0.28
      vertex 0.95 -5.075 0.28
      vertex 0.95 -3.175 0.28
    endloop
  endfacet
  facet normal 0 0 1
    outer loop
      vertex 0.95 -5.075 0.28
      vertex -0.95 -3.175 0.28
      vertex -0.95 -5.075 0.28
    endloop
  endfacet
  facet normal 1 -0 0
    outer loop
      vertex -0.95 -5.075 1.28
      vertex -0.95 -3.175 0.28
      vertex -0.95 -3.175 1.28
    endloop
  endfacet
  facet normal 1 0 0
    outer loop
      vertex -0.95 -3.175 0.28
      vertex -0.95 -5.075 1.28
      vertex -0.95 -5.075 0.28
    endloop
  endfacet
  facet normal 0 1 -0
    outer loop
      vertex 0.95 -5.075 0.28
      vertex -0.95 -5.075 1.28
      vertex 0.95 -5.075 1.28
    endloop
  endfacet
  facet normal 0 1 0
    outer loop
      vertex -0.95 -5.075 1.28
      vertex 0.95 -5.075 0.28
      vertex -0.95 -5.075 0.28
    endloop
  endfacet
  facet normal -1 0 0
    outer loop
      vertex 0.95 3.175 0.28
      vertex 0.95 5.075 1.28
      vertex 0.95 5.075 0.28
    endloop
  endfacet
  facet normal -1 -0 0
    outer loop
      vertex 0.95 5.075 1.28
      vertex 0.95 3.175 0.28
      vertex 0.95 3.175 1.28
    endloop
  endfacet
  facet normal -0 0 1
    outer loop
      vertex -0.95 5.075 0.28
      vertex 0.95 3.175 0.28
      vertex 0.95 5.075 0.28
    endloop
  endfacet
  facet normal 0 0 1
    outer loop
      vertex 0.95 3.175 0.28
      vertex -0.95 5.075 0.28
      vertex -0.95 3.175 0.28
    endloop
  endfacet
  facet normal 0 -1 0
    outer loop
      vertex -0.95 5.075 0.28
      vertex 0.95 5.075 1.28
      vertex -0.95 5.075 1.28
    endloop
  endfacet
  facet normal 0 -1 -0
    outer loop
      vertex 0.95 5.075 1.28
      vertex -0.95 5.075 0.28
      vertex 0.95 5.075 0.28
    endloop
  endfacet
  facet normal 1 -0 0
    outer loop
      vertex -0.95 3.175 1.28
      vertex -0.95 5.075 0.28
      vertex -0.95 5.075 1.28
    endloop
  endfacet
  facet normal 1 0 0
    outer loop
      vertex -0.95 5.075 0.28
      vertex -0.95 3.175 1.28
      vertex -0.95 3.175 0.28
    endloop
  endfacet
endsolid OpenSCAD_Model
